<?xml version="1.0" encoding="UTF-8" standalone="no"?>
<!-- Created with Inkscape (http://www.inkscape.org/) -->

<svg
   width="1668"
   height="2100"
   viewBox="0 0 1668 2100"
   version="1.1"
   id="svg1"
   xmlns="http://www.w3.org/2000/svg"
   xmlns:svg="http://www.w3.org/2000/svg">
  <defs
     id="defs1">
    <rect
       x="1093.6895"
       y="884.21106"
       width="180.63712"
       height="106.25713"
       id="rect1" />
    <rect
       x="182.15508"
       y="1769.9401"
       width="692.18927"
       height="303.5918"
       id="rect9" />
    <rect
       x="446.27994"
       y="1077.7509"
       width="525.21381"
       height="294.48404"
       id="rect2" />
    <rect
       x="446.27994"
       y="1077.7509"
       width="525.21381"
       height="294.48404"
       id="rect2-4" />
    <rect
       x="446.27994"
       y="1077.7509"
       width="525.21381"
       height="294.48404"
       id="rect2-4-5" />
    <rect
       x="182.15508"
       y="1769.9401"
       width="692.18927"
       height="303.5918"
       id="rect9-6" />
    <rect
       x="1093.6895"
       y="884.21106"
       width="180.63712"
       height="106.25713"
       id="rect1-4" />
  </defs>
  <g
     id="layer1">
    <rect
       style="font-variation-settings:'wght' 900;fill:#f6f3ee;fill-opacity:1;stroke-width:6.99348"
       id="rect5"
       width="1677.0782"
       height="2425.5605"
       x="-1677.0782"
       y="-2425.5605"
       rx="0"
       ry="0"
       transform="scale(-1)" />
    <rect
       style="font-variation-settings:'wght' 900;fill:#cccccc;fill-opacity:1"
       id="rect4"
       width="660.30273"
       height="437.17218"
       x="-91.382652"
       y="-64.077217"
       rx="45.020809"
       ry="45.020809" />
    <rect
       style="font-variation-settings:'wght' 900;fill:#cccccc;fill-opacity:1"
       id="rect4-2"
       width="660.30273"
       height="437.17218"
       x="1185.8879"
       y="-64.077217"
       rx="45.020809"
       ry="45.020809" />
    <text
       xml:space="preserve"
       id="text2"
       style="font-size:85.3333px;writing-mode:lr-tb;direction:ltr;white-space:pre;shape-inside:url(#rect2);display:inline;fill:#ececec;fill-opacity:1"
       transform="translate(-334.85869,-933.54475)"><tspan
         x="446.2793"
         y="1163.51"
         id="tspan3"><tspan
           style="font-weight:900;font-family:'Noto Sans TC';-inkscape-font-specification:'Noto Sans TC Heavy'"
           id="tspan1">大包廂</tspan></tspan></text>
    <text
       xml:space="preserve"
       id="text2-2"
       style="font-size:85.3333px;writing-mode:lr-tb;direction:ltr;white-space:pre;shape-inside:url(#rect2-4);display:inline;fill:#ececec;fill-opacity:1"
       transform="translate(872.70319,-947.68258)"><tspan
         x="446.2793"
         y="1163.51"
         id="tspan5"><tspan
           style="font-weight:900;font-family:'Noto Sans TC';-inkscape-font-specification:'Noto Sans TC Heavy'"
           id="tspan4">小包廂</tspan></tspan></text>
    <text
       xml:space="preserve"
       id="text2-2-1"
       style="font-size:85.3333px;writing-mode:lr-tb;direction:ltr;white-space:pre;shape-inside:url(#rect2-4-5);display:inline;fill:#666666;fill-opacity:1"
       transform="translate(259.79254,-918.71574)"><tspan
         x="446.2793"
         y="1163.51"
         id="tspan7"><tspan
           style="font-weight:600;font-family:'Noto Sans TC';-inkscape-font-specification:'Noto Sans TC Black';font-variation-settings:'wght' 900"
           id="tspan6">舞台區</tspan></tspan></text>
    <g
       id="g7"
       transform="translate(-14.467481,-7.60318)">
      <g
         id="g6"
         transform="translate(1.4891608)"
         style="fill:#cccccc">
        <rect
           style="font-variation-settings:'wght' 900;fill:#cccccc;fill-opacity:1;stroke-width:0.781874"
           id="rect6"
           width="273.2326"
           height="206.44241"
           x="1050.4276"
           y="546.46521"
           ry="30.359179" />
        <rect
           style="font-variation-settings:'wght' 900;fill:#cccccc;fill-opacity:1;stroke-width:0.781874"
           id="rect6-1"
           width="273.2326"
           height="206.44241"
           x="1356.9396"
           y="546.46521"
           ry="30.359179" />
      </g>
      <g
         id="g6-1"
         transform="translate(1.4891608,274.65024)"
         style="fill:#cccccc">
        <rect
           style="font-variation-settings:'wght' 900;fill:#cccccc;fill-opacity:1;stroke-width:0.781874"
           id="rect6-9"
           width="273.2326"
           height="206.44241"
           x="1050.4276"
           y="546.46521"
           ry="30.359179" />
        <rect
           style="font-variation-settings:'wght' 900;fill:#cccccc;fill-opacity:1;stroke-width:0.781874"
           id="rect6-1-8"
           width="273.2326"
           height="206.44241"
           x="1356.9396"
           y="546.46521"
           ry="30.359179" />
      </g>
      <g
         id="g6-1-8"
         transform="translate(1.4891608,549.30047)"
         style="fill:#cccccc">
        <rect
           style="font-variation-settings:'wght' 900;fill:#cccccc;fill-opacity:1;stroke-width:0.781874"
           id="rect6-9-6"
           width="273.2326"
           height="206.44241"
           x="1050.4276"
           y="546.46521"
           ry="30.359179" />
        <rect
           style="font-variation-settings:'wght' 900;fill:#cccccc;fill-opacity:1;stroke-width:0.781874"
           id="rect6-1-8-0"
           width="273.2326"
           height="206.44241"
           x="1356.9396"
           y="546.46521"
           ry="30.359179" />
      </g>
    </g>
    <g
       id="g8"
       transform="translate(-14.467481)">
      <g
         id="g6-5"
         transform="translate(-985.15399,-7.60318)"
         style="fill:#cccccc">
        <rect
           style="font-variation-settings:'wght' 900;fill:#cccccc;fill-opacity:1;stroke-width:0.781874"
           id="rect6-0"
           width="273.2326"
           height="206.44241"
           x="1050.4276"
           y="546.46521"
           ry="30.359179" />
        <rect
           style="font-variation-settings:'wght' 900;fill:#cccccc;fill-opacity:1;stroke-width:0.781874"
           id="rect6-1-9"
           width="273.2326"
           height="206.44241"
           x="1356.9396"
           y="546.46521"
           ry="30.359179" />
      </g>
      <g
         id="g6-1-0"
         transform="translate(-985.15399,267.04706)"
         style="fill:#cccccc">
        <rect
           style="font-variation-settings:'wght' 900;fill:#cccccc;fill-opacity:1;stroke-width:0.781874"
           id="rect6-9-0"
           width="273.2326"
           height="206.44241"
           x="1050.4276"
           y="546.46521"
           ry="30.359179" />
        <rect
           style="font-variation-settings:'wght' 900;fill:#cccccc;fill-opacity:1;stroke-width:0.781874"
           id="rect6-1-8-6"
           width="273.2326"
           height="206.44241"
           x="1356.9396"
           y="546.46521"
           ry="30.359179" />
      </g>
      <rect
         style="font-variation-settings:'wght' 900;fill:#cccccc;fill-opacity:1;stroke-width:0.781874"
         id="rect6-1-2"
         width="273.2326"
         height="206.44241"
         x="65.273621"
         y="1095.7656"
         ry="30.359179" />
    </g>
    <text
       xml:space="preserve"
       id="text9"
       style="font-style:normal;font-variant:normal;font-weight:normal;font-stretch:normal;font-size:85.3333px;font-family:'Noto Sans TC';-inkscape-font-specification:'Noto Sans TC, @wght=900';font-variant-ligatures:normal;font-variant-caps:normal;font-variant-numeric:normal;font-variant-east-asian:normal;font-variation-settings:'wght' 900;writing-mode:lr-tb;direction:ltr;white-space:pre;shape-inside:url(#rect9);display:inline;fill:#cccccc;fill-opacity:1"
       transform="translate(-100.18529,-170.0114)"><tspan
         x="182.1543"
         y="1855.6994"
         id="tspan9"><tspan
           style="font-weight:600;-inkscape-font-specification:'Noto Sans TC Black';fill:#4d4d4d"
           id="tspan8">拍照區</tspan></tspan></text>
    <text
       xml:space="preserve"
       id="text9-4"
       style="font-style:normal;font-variant:normal;font-weight:normal;font-stretch:normal;font-size:85.3333px;font-family:'Noto Sans TC';-inkscape-font-specification:'Noto Sans TC, @wght=900';font-variant-ligatures:normal;font-variant-caps:normal;font-variant-numeric:normal;font-variant-east-asian:normal;font-variation-settings:'wght' 900;writing-mode:lr-tb;direction:ltr;white-space:pre;shape-inside:url(#rect9-6);display:inline;fill:#4d4d4d;fill-opacity:1"
       transform="translate(996.11328,-192.72069)"><tspan
         x="182.1543"
         y="1855.6994"
         id="tspan11"><tspan
           style="font-weight:600;-inkscape-font-specification:'Noto Sans TC Black'"
           id="tspan10">簽到桌</tspan></tspan></text>
    <rect
       style="font-variation-settings:'wght' 900;fill:#4d4d4d;fill-opacity:1"
       id="rect10"
       width="771.12317"
       height="9.1077538"
       x="-118.4008"
       y="1739.5809"
       ry="4.5538769" />
    <rect
       style="font-variation-settings:'wght' 900;fill:#4d4d4d;fill-opacity:1;stroke-width:0.650542"
       id="rect10-6"
       width="546.61316"
       height="5.4375443"
       x="172.29002"
       y="2381.6794"
       ry="2.7187722"
       transform="matrix(-0.92308964,0.38458486,0.76679302,0.64189444,0,0)" />
    <text
       xml:space="preserve"
       id="text1"
       style="font-weight:900;font-size:64px;line-height:1.3;font-family:'Noto Sans TC';-inkscape-font-specification:'Noto Sans TC Heavy';font-variation-settings:'wght' 900;letter-spacing:10px;writing-mode:lr-tb;direction:ltr;white-space:pre;shape-inside:url(#rect1);fill:#4d4d4d"
       transform="translate(8.5868727,-2.1467181)"><tspan
         x="1093.6895"
         y="950.13094"
         id="tspan12">新人</tspan></text>
    <rect
       style="font-variation-settings:'wght' 900;fill:#4d4d4d"
       id="rect3"
       width="347.76834"
       height="30.054054"
       x="660.11584"
       y="2069.946" />
    <text
       xml:space="preserve"
       id="text1-2"
       style="font-weight:900;font-size:64px;line-height:1.3;font-family:'Noto Sans TC';-inkscape-font-specification:'Noto Sans TC Heavy';font-variation-settings:'wght' 900;letter-spacing:10px;writing-mode:lr-tb;direction:ltr;white-space:pre;shape-inside:url(#rect1-4);fill:#4d4d4d"
       transform="translate(-328.68945,1086.1177)"><tspan
         x="1093.6895"
         y="950.13094"
         id="tspan13">入口</tspan></text>
  </g>
  <g
     id="layer2">
    <path
       id="path24-4"
       style="mix-blend-mode:multiply;fill:#1434a4;fill-opacity:1"
       d="m 451.31872,1329.1985 a 360.64865,360.64865 0 0 0 -360.6484,360.6484 360.64865,360.64865 0 0 0 360.6484,360.6485 360.64865,360.64865 0 0 0 360.6484,-360.6485 360.64865,360.64865 0 0 0 -360.6484,-360.6484 z m -0.2598,241.3769 c 20.8334,0 38.1952,5.0361 52.084,15.1055 14.2362,9.7223 21.3535,24.1313 21.3535,43.2285 0,13.1944 -3.8201,25.1736 -11.4589,35.9375 -7.2917,10.4167 -17.3598,16.8409 -30.2071,19.2715 14.9306,1.0417 27.0821,7.1175 36.4571,18.2285 9.7222,11.1112 14.5839,23.7854 14.5839,38.0215 0,19.7917 -7.2916,36.1098 -21.875,48.957 -14.2361,13.1945 -33.6811,19.793 -58.3339,19.793 -21.1806,0 -39.9306,-5.3826 -56.25,-16.1465 -16.3195,-10.4167 -25.8668,-27.2576 -28.6446,-50.5215 h 54.166 c 0.6945,8.6806 3.4729,15.4514 8.334,20.3125 4.8611,4.5139 11.8043,6.7715 20.8321,6.7715 6.9444,0 12.8478,-2.7784 17.7089,-8.334 5.2084,-5.9028 7.8125,-13.1944 7.8125,-21.875 0,-11.1111 -3.9923,-19.9652 -11.9785,-26.5625 -7.9861,-6.5972 -19.9653,-9.3737 -35.9375,-8.332 v -37.5 c 11.8056,0.3473 21.1806,-2.4312 28.125,-8.334 6.9445,-5.9028 10.416,-13.1944 10.416,-21.875 0,-6.9444 -1.909,-12.6735 -5.7285,-17.1875 -3.4722,-4.5138 -8.5082,-6.7715 -15.1054,-6.7715 -6.5972,0 -11.9779,2.2577 -16.1446,6.7715 -3.8194,4.1668 -5.7304,9.0285 -5.7304,14.584 h -54.1661 c 1.7362,-20.1389 9.5486,-35.7639 23.4375,-46.875 13.8889,-11.1111 32.6389,-16.668 56.25,-16.668 z" />
  </g>
</svg>
